<svg xmlns="http://www.w3.org/2000/svg" viewBox="0 0 128 128" role="img" aria-label="Violin icon"><defs><filter id="depth" x="-45%" y="-45%" width="190%" height="190%"><feDropShadow dx="0" dy="8" stdDeviation="5" flood-color="#221a16" flood-opacity=".22"/><feDropShadow dx="0" dy="1" stdDeviation="1" flood-color="#fff8ef" flood-opacity=".34"/></filter><linearGradient id="paper" x1="20" y1="14" x2="108" y2="116" gradientUnits="userSpaceOnUse"><stop stop-color="#fff8ee"/><stop offset="1" stop-color="#dfd1bf"/></linearGradient><linearGradient id="ink" x1="18" y1="14" x2="108" y2="116" gradientUnits="userSpaceOnUse"><stop stop-color="#31313b"/><stop offset="1" stop-color="#080911"/></linearGradient><linearGradient id="coral" x1="18" y1="16" x2="110" y2="114" gradientUnits="userSpaceOnUse"><stop stop-color="#eda891"/><stop offset=".55" stop-color="#ce735b"/><stop offset="1" stop-color="#884a3c"/></linearGradient><linearGradient id="rose" x1="18" y1="16" x2="108" y2="116" gradientUnits="userSpaceOnUse"><stop stop-color="#e4a4ad"/><stop offset=".55" stop-color="#ba6c84"/><stop offset="1" stop-color="#6f425b"/></linearGradient><linearGradient id="teal" x1="16" y1="16" x2="108" y2="112" gradientUnits="userSpaceOnUse"><stop stop-color="#83aaa0"/><stop offset=".55" stop-color="#4f827a"/><stop offset="1" stop-color="#244d52"/></linearGradient><linearGradient id="blue" x1="18" y1="16" x2="108" y2="112" gradientUnits="userSpaceOnUse"><stop stop-color="#7891b7"/><stop offset=".56" stop-color="#496c9a"/><stop offset="1" stop-color="#1e2d55"/></linearGradient><linearGradient id="gold" x1="20" y1="16" x2="108" y2="112" gradientUnits="userSpaceOnUse"><stop stop-color="#f0c763"/><stop offset=".55" stop-color="#be8434"/><stop offset="1" stop-color="#6e421e"/></linearGradient></defs><g filter="url(#depth)"><path d="M62 20h12c4 0 7 3 7 7v27c9 6 15 16 15 29 0 18-11 29-25 24-4-2-7-6-9-12-2 6-5 10-9 12-14 5-25-6-25-24 0-13 6-23 15-29V27c0-4 3-7 7-7z" fill="url(#gold)"/><path d="M62 52c5 0 8 4 6 10-2 7 0 14 6 22 4 5 3 13-2 16-4 2-7-2-10-12-3 10-6 14-10 12-5-3-6-11-2-16 6-8 8-15 6-22-2-6 1-10 6-10z" fill="#7c491f" opacity=".5"/><path d="M52 66c-5 7-5 16 0 24M72 66c5 7 5 16 0 24" fill="none" stroke="#080911" stroke-width="5" stroke-linecap="round"/><path d="M52 28v75M58 26v78M64 26v78M70 28v75" stroke="#fff8ee" stroke-width="2.7" stroke-linecap="round"/><path d="M45 101h34" stroke="#3a271b" stroke-width="7" stroke-linecap="round"/></g></svg>